<?xml version="1.0" encoding="utf-8"?>
<!-- Generator: Adobe Illustrator 15.0.0, SVG Export Plug-In  -->
<!DOCTYPE svg PUBLIC "-//W3C//DTD SVG 1.1//EN" "http://www.w3.org/Graphics/SVG/1.1/DTD/svg11.dtd" [
	<!ENTITY ns_flows "http://ns.adobe.com/Flows/1.0/">
]>
<svg version="1.1"
	 xmlns="http://www.w3.org/2000/svg" xmlns:xlink="http://www.w3.org/1999/xlink" xmlns:a="http://ns.adobe.com/AdobeSVGViewerExtensions/3.0/"
	 x="0px" y="0px" width="620px" height="620px" viewBox="-89.629 -4.5 620 620"
	 overflow="visible" enable-background="new -89.629 -4.5 620 620" xml:space="preserve">
<defs>
</defs>
<path fill="#DBA474" d="M269.377,555.412l113.437-252.19c0,0,15.006-44.506,16.814-58.297c1.81-13.791,2.325-20.215,2.325-20.215
	s-8.701,2.708-20.368,2.041s-30.666-3.333-42.333-11s-24.666-18-32-32s-10.668-23.333-11.334-31s-0.666-20.667-0.666-20.667
	s-9,1-22.667-2.667s-21.666-9-27.333-14.333s-12.334-17-13.334-20s-3-6.333-3-6.333s-5.666,6.333-19.666,8.333s-24,4-40.334-0.333
	c-16.333-4.333-17-7.333-27.333-15.333s-18.333-21.667-18.333-21.667l-3.534-5.251c0,0-28.691,19.189-40.456,33.565
	S54.958,119.55,49.178,133.69c-5.78,14.14-15.561,43.436-16.344,62.083c-0.783,18.647-0.919,47.508,3.638,65.227
	s5.471,20.742,5.471,20.742l120.975,272.75c0,0,13.244,30.213,55.457,30.065C260.586,584.414,269.377,555.412,269.377,555.412z"/>
<path fill="#694729" d="M220.371,615.447c-59.5-0.053-88.35-55.747-88.35-55.747S10.539,308.665,3.371,259
	c-6.411-44.419-5.504-101.333,19.086-144.532c23.416-41.136,43.749-62.469,68.085-78.939c9.111-6.166,36.284-22.436,42.995-22.861
	c16.037-1.018,15.946,16.358,19.862,24.988c5.365,11.826,21.806,24.678,38.472,24.011c23.774-0.952,29.956-19.737,33.013-24.497
	c3.32-5.169,12.212-10.472,22.986-5.836c11.706,5.037,10,12.667,10,12.667s0,0,0,6s-1.711,25.225,11.667,35.667
	C283.204,96.333,293.871,96,302.871,93s19.015-5.044,22-5.333c10.333-1,15.951,8.339,15.951,8.339
	c4.382,8.328,2.807,15.723-1.951,22.995c-4.123,6.301-7.17,13.279-7,23c0.158,9.054,7,27.666,18.22,36.277
	c10.031,7.699,18.596,11.117,34.78,10.722c13.667-0.333,12.443-2.394,20.426-5.805c7.983-3.411,18.999-1.197,21.529,0.7
	c5.334,4,7.017,14.033,7.473,22.042s-1.421,35.238-4.678,54.614c-3.257,19.376-13.047,44.949-13.047,44.949L297.808,569.963
	C297.808,569.963,279.871,615.5,220.371,615.447z M268.666,555.324l113.437-252.19c0,0,15.006-44.506,16.814-58.297
	c1.81-13.791,2.325-20.215,2.325-20.215s-8.701,2.708-20.368,2.041s-30.666-3.333-42.333-11s-24.666-18-32-32
	s-10.668-23.333-11.334-31s-0.666-20.667-0.666-20.667s-9,1-22.667-2.667s-21.666-9-27.333-14.333s-12.334-17-13.334-20
	s-3-6.333-3-6.333s-5.666,6.333-19.666,8.333s-24,4-40.333-0.333s-17-7.333-27.333-15.333s-18.334-21.667-18.334-21.667
	l-3.534-5.251c0,0-28.691,19.189-40.456,33.565c-11.765,14.376-24.305,31.485-30.085,45.625
	c-5.78,14.14-15.561,43.436-16.344,62.083s-0.919,47.508,3.638,65.227c4.557,17.719,5.471,20.742,5.471,20.742l120.975,272.751
	c0,0,13.244,30.212,55.457,30.065C259.875,584.325,268.666,555.324,268.666,555.324z"/>
<circle fill="#694729" cx="319.371" cy="24.5" r="24.5"/>
<circle fill="#694729" cx="405.871" cy="39.5" r="15"/>
<circle fill="#694729" cx="412.619" cy="124.748" r="21.748"/>
<circle fill="#694729" cx="231.871" cy="199" r="28"/>
<circle fill="#694729" cx="245.267" cy="309.604" r="27.604"/>
<circle fill="#694729" cx="150.121" cy="276.25" r="29.25"/>
<circle fill="#694729" cx="131.371" cy="162.5" r="27.5"/>
</svg>
