<?xml version="1.0" encoding="utf-8"?>
<!-- Generator: Adobe Illustrator 15.0.0, SVG Export Plug-In . SVG Version: 6.00 Build 0)  -->
<!DOCTYPE svg PUBLIC "-//W3C//DTD SVG 1.1//EN" "http://www.w3.org/Graphics/SVG/1.1/DTD/svg11.dtd">
<svg version="1.1" id="Livello_1" xmlns="http://www.w3.org/2000/svg" xmlns:xlink="http://www.w3.org/1999/xlink" x="0px" y="0px"
	 width="620px" height="620px" viewBox="0 0 620 620" enable-background="new 0 0 620 620" xml:space="preserve">
<path fill="#DBA474" d="M45.625,605.279l19.213-42.714c0,0,2.542-7.538,2.848-9.874c0.307-2.336,0.394-3.424,0.394-3.424
	s-1.474,0.459-3.45,0.346s-5.194-0.564-7.17-1.863s-4.178-3.049-5.42-5.42s-1.807-3.952-1.92-5.25
	c-0.113-1.299-0.113-3.501-0.113-3.501s-1.524,0.17-3.839-0.451c-2.315-0.621-3.67-1.524-4.629-2.428
	c-0.96-0.903-2.089-2.88-2.259-3.388s-0.508-1.072-0.508-1.072s-0.96,1.072-3.331,1.411s-4.065,0.678-6.832-0.057
	c-2.766-0.733-2.879-1.242-4.629-2.597c-1.75-1.355-3.105-3.67-3.105-3.67l-0.599-0.89c0,0-4.859,3.25-6.852,5.686
	c-1.993,2.435-4.116,5.332-5.095,7.728c-0.979,2.395-2.636,7.356-2.768,10.515c-0.133,3.158-0.156,8.047,0.616,11.048
	c0.771,3.001,0.926,3.514,0.926,3.514l20.49,46.195c0,0,2.243,5.117,9.393,5.092C44.136,610.191,45.625,605.279,45.625,605.279z"/>
<path fill="#694729" d="M37.325,615.447c-10.078-0.009-14.964-9.442-14.964-9.442s-20.576-42.518-21.79-50.93
	c-1.086-7.523-0.932-17.163,3.232-24.479c3.966-6.967,7.41-10.58,11.532-13.37c1.543-1.045,6.146-3.8,7.282-3.872
	c2.716-0.173,2.701,2.771,3.364,4.232c0.909,2.003,3.693,4.18,6.516,4.066c4.027-0.161,5.074-3.343,5.591-4.148
	c0.562-0.876,2.069-1.773,3.894-0.988c1.982,0.853,1.694,2.145,1.694,2.145s0,0,0,1.017s-0.29,4.272,1.976,6.041
	c2.315,1.807,4.122,1.75,5.646,1.242c1.524-0.509,3.221-0.854,3.726-0.903c1.75-0.17,2.702,1.412,2.702,1.412
	c0.742,1.41,0.476,2.663-0.33,3.895c-0.699,1.067-1.215,2.249-1.186,3.896c0.027,1.534,1.186,4.686,3.086,6.145
	c1.699,1.304,3.15,1.883,5.891,1.815c2.314-0.056,2.107-0.405,3.459-0.982c1.352-0.578,3.218-0.203,3.646,0.118
	c0.903,0.678,1.188,2.377,1.266,3.733s-0.241,5.968-0.792,9.25c-0.552,3.281-2.209,7.613-2.209,7.613l-20.116,44.792
	C50.441,607.743,47.403,615.456,37.325,615.447z M45.505,605.264l19.213-42.713c0,0,2.542-7.538,2.848-9.874
	c0.307-2.336,0.394-3.424,0.394-3.424s-1.474,0.458-3.45,0.346c-1.976-0.113-5.194-0.564-7.17-1.863s-4.178-3.049-5.42-5.42
	s-1.807-3.952-1.919-5.251c-0.113-1.298-0.113-3.5-0.113-3.5s-1.524,0.17-3.839-0.452c-2.315-0.621-3.669-1.523-4.629-2.427
	s-2.089-2.88-2.258-3.388c-0.169-0.509-0.508-1.073-0.508-1.073s-0.959,1.073-3.331,1.412c-2.372,0.339-4.065,0.677-6.832-0.057
	c-2.766-0.733-2.879-1.242-4.629-2.597c-1.75-1.355-3.105-3.67-3.105-3.67l-0.599-0.89c0,0-4.859,3.25-6.852,5.685
	c-1.993,2.436-4.117,5.333-5.096,7.728c-0.979,2.396-2.636,7.357-2.768,10.516c-0.133,3.158-0.156,8.046,0.616,11.048
	c0.772,3.001,0.927,3.513,0.927,3.513l20.49,46.196c0,0,2.243,5.117,9.393,5.092C44.016,610.176,45.505,605.264,45.505,605.264z"/>
<circle fill="#694729" cx="54.093" cy="515.357" r="4.149"/>
<circle fill="#694729" cx="68.744" cy="517.898" r="2.541"/>
<circle fill="#694729" cx="69.887" cy="532.337" r="3.684"/>
<circle fill="#694729" cx="39.273" cy="544.913" r="4.742"/>
<circle fill="#694729" cx="41.542" cy="563.646" r="4.675"/>
<circle fill="#694729" cx="25.427" cy="557.997" r="4.954"/>
<circle fill="#694729" cx="22.251" cy="538.731" r="4.658"/>
</svg>
